<svg width="250" height="250" viewBox="0 0 250 250" fill="none" xmlns="http://www.w3.org/2000/svg">
<path fill-rule="evenodd" clip-rule="evenodd" d="M233.24 66.9962H249.8C250.125 67.9912 248.249 70.1252 246.92 71.6762C238.011 82.0692 227.682 94.0522 218.12 104.076C207.957 91.6792 196.04 79.1162 186.8 66.9962H204.44C205.463 57.0292 200.402 48.2512 192.2 47.1962C182.461 45.9432 170.523 47.1962 159.08 47.1962H92.8402C81.5162 47.1962 69.4092 45.6422 59.7202 47.1962C41.9542 50.0452 48.1682 76.0372 47.1202 95.0762H18.3202C18.1142 73.6372 16.8702 55.5332 24.4402 41.7962C31.2372 29.4612 44.3932 19.6012 61.8802 18.3962C79.2572 17.1982 98.1672 18.3962 116.96 18.3962H172.04C193.406 18.3962 204.845 19.6342 216.32 29.1962C225.94 37.2132 233.706 48.7822 233.24 66.9962" fill="black"/>
<path fill-rule="evenodd" clip-rule="evenodd" d="M116.96 93.276C111.314 107.621 134.033 110.025 134.24 96.876C134.331 91.063 130.03 86.428 122.72 88.236C119.315 89.078 117.654 91.513 116.96 93.276M72.68 174.996C72.785 170.061 72.391 164.628 73.04 160.236C100.201 160.983 121.429 150.802 119.84 122.796C104.958 121.958 88.522 122.674 73.04 122.436V107.676H101.12C93.835 90.075 106.018 72.246 122 70.596C148.32 67.879 159.543 99.528 143.96 115.236C142.089 117.123 139.336 118.186 137.12 120.636C138.841 143.271 128.981 156.009 115.16 164.196C103.671 171.002 89.19 176.765 72.68 174.996" fill="black"/>
<path fill-rule="evenodd" clip-rule="evenodd" d="M63.6802 145.116H47.4802C46.8132 154.008 47.1202 161.321 47.1202 168.876C47.1202 175.474 45.7202 188.113 48.5602 194.076C50.4302 198.002 54.8802 202.339 60.4402 203.076C71.0632 204.485 82.5972 203.076 93.9202 203.076H160.88C180.19 203.076 198.362 206.186 203.36 193.717C205.537 188.283 203.936 178.585 204.44 172.116H233.24C235.961 199.091 225.666 216.998 209.12 226.116C204.651 228.579 198.242 231.023 191.84 231.516C171.174 233.108 148.146 231.516 125.96 231.516C103.534 231.516 81.3032 232.915 60.4402 231.516C41.6342 230.256 29.0232 218.429 22.6402 204.876C15.2962 189.284 19.3902 167.556 18.3202 145.116H0.680196C0.000196062 143.89 2.3192 142.256 3.5602 140.796C12.5032 130.278 22.7982 118.27 32.0002 107.676C32.2912 107.744 32.3592 108.037 32.7202 108.036C42.4912 120.406 54.6682 132.617 63.6802 145.116" fill="black"/>
<path fill-rule="evenodd" clip-rule="evenodd" d="M155.12 108.036H217.76V122.436H154.76C154.999 117.755 154.281 112.118 155.12 108.036" fill="black"/>
<path fill-rule="evenodd" clip-rule="evenodd" d="M218.12 131.076C214.113 162.949 189.564 174.281 154.76 175.356V160.956C172.572 160.977 190.222 157.802 196.519 145.116C182.838 144.878 168.202 145.594 155.12 144.757C155.358 140.315 154.641 134.918 155.48 131.076H218.12Z" fill="black"/>
</svg>
