<?xml version="1.0" encoding="UTF-8"?>
<!-- Generated by Pixelmator Pro 3.6.8 -->
<svg width="250" height="250" viewBox="0 0 250 250" xmlns="http://www.w3.org/2000/svg">
    <path id="Path" d="M 233.240005 66.996201 L 249.800003 66.996201 C 250.125 67.991211 248.248993 70.125198 246.919998 71.676208 C 238.011002 82.069199 227.682007 94.0522 218.119995 104.075989 C 207.957001 91.679199 196.039993 79.116211 186.800003 66.996201 L 204.440002 66.996201 C 205.462997 57.029205 200.401993 48.251205 192.199997 47.196198 C 182.460999 45.943207 170.522995 47.196198 159.080002 47.196198 L 92.840202 47.196198 C 81.516197 47.196198 69.409203 45.642197 59.7202 47.196198 C 41.954201 50.045197 48.168201 76.037201 47.120201 95.076202 L 18.3202 95.076202 C 18.114201 73.637207 16.870199 55.533203 24.440201 41.796204 C 31.2372 29.461197 44.3932 19.601196 61.880199 18.396194 C 79.257202 17.198196 98.167198 18.396194 116.959999 18.396194 L 172.039993 18.396194 C 193.406006 18.396194 204.845001 19.634201 216.320007 29.196198 C 225.940002 37.213196 233.705994 48.782196 233.240005 66.996201"/>
    <path id="path1" d="M 116.959999 93.276001 C 111.314003 107.621002 134.033005 110.024994 134.240005 96.876007 C 134.330994 91.063004 130.029999 86.428009 122.720001 88.235992 C 119.315002 89.078003 117.653999 91.513 116.959999 93.276001 M 72.68 174.996002 C 72.785004 170.061005 72.390999 164.628006 73.040001 160.235992 C 100.200996 160.983002 121.429001 150.802002 119.839996 122.795998 C 104.958 121.958008 88.522003 122.674004 73.040001 122.435997 L 73.040001 107.675995 L 101.120003 107.675995 C 93.834999 90.074997 106.017998 72.246002 122 70.596008 C 148.320007 67.878998 159.542999 99.528 143.960007 115.235992 C 142.089005 117.123001 139.335999 118.186005 137.119995 120.636002 C 138.841003 143.270996 128.981003 156.009003 115.160004 164.195999 C 103.670998 171.001999 89.190002 176.764999 72.68 174.996002"/>
    <path id="path2" d="M 63.680199 145.115997 L 47.480202 145.115997 C 46.813202 154.007996 47.120201 161.320999 47.120201 168.876007 C 47.120201 175.473999 45.7202 188.113007 48.5602 194.076004 C 50.430199 198.001999 54.880199 202.339005 60.440201 203.076004 C 71.063202 204.485001 82.597198 203.076004 93.920197 203.076004 L 160.880005 203.076004 C 180.190002 203.076004 198.362 206.186005 203.360001 193.716995 C 205.537003 188.283005 203.936005 178.585007 204.440002 172.115997 L 233.240005 172.115997 C 235.960999 199.091003 225.666 216.998001 209.119995 226.115997 C 204.651001 228.578995 198.242004 231.022995 191.839996 231.516006 C 171.173996 233.108002 148.145996 231.516006 125.959999 231.516006 C 103.533997 231.516006 81.3032 232.914993 60.440201 231.516006 C 41.634201 230.255997 29.023199 218.429001 22.6402 204.876007 C 15.2962 189.283997 19.3902 167.556 18.3202 145.115997 L 0.680196 145.115997 C 0.000196 143.889999 2.3192 142.255997 3.5602 140.796005 C 12.5032 130.278 22.798201 118.269989 32.000198 107.675995 C 32.291199 107.744003 32.3592 108.037003 32.7202 108.036011 C 42.491199 120.406006 54.668201 132.617004 63.680199 145.115997"/>
    <path id="path3" d="M 155.119995 108.036011 L 217.759995 108.036011 L 217.759995 122.435997 L 154.759995 122.435997 C 154.998993 117.755005 154.281006 112.117996 155.119995 108.036011"/>
    <path id="path4" d="M 218.119995 131.076004 C 214.113007 162.949005 189.563995 174.281006 154.759995 175.356003 L 154.759995 160.955994 C 172.572006 160.977005 190.222 157.802002 196.518997 145.115997 C 182.837997 144.878006 168.201996 145.593994 155.119995 144.757004 C 155.358002 140.315002 154.641006 134.917999 155.479996 131.076004 L 218.119995 131.076004 Z"/>
</svg>
